<svg width="74" height="77" viewBox="0 0 74 77" fill="none" xmlns="http://www.w3.org/2000/svg">
<path d="M25.422 35.0045L24.9633 40.9221C23.7914 39.3345 21.8879 38.3999 19.8631 38.4924C21.7835 37.2887 23.677 36.1009 25.422 35.0045Z" stroke="#5AC235" stroke-width="10"/>
<path d="M53.4557 39.1968V52.9666C53.4557 58.5837 51.0817 63.9392 46.9195 67.7112L46.0699 68.4811C42.9566 71.3025 38.9053 72.8652 34.7037 72.8652V72.8652C29.869 72.8652 25.2651 70.7977 22.053 67.1842L21.5998 66.6743C16.9588 61.4531 15.6655 54.0582 18.259 47.5719L20.2452 42.6046" stroke="#5AC235" stroke-width="8"/>
<rect x="49.4561" y="4.68066" width="8" height="40" rx="4" fill="#5AC235"/>
<rect x="33.4561" y="8.97412" width="8" height="40" rx="4" transform="rotate(-90 33.4561 8.97412)" fill="#5AC235"/>
</svg>
