<svg width="397" height="76" viewBox="0 0 397 76" fill="none" xmlns="http://www.w3.org/2000/svg">
<path d="M75.176 33.28C75.176 36.2667 75.8587 38.9333 77.224 41.28C78.632 43.584 80.5307 45.3973 82.92 46.72C85.3093 48 88.0187 48.64 91.048 48.64C94.0773 48.64 96.7653 48 99.112 46.72C101.501 45.3973 103.4 43.584 104.808 41.28C106.216 38.9333 106.92 36.2667 106.92 33.28C106.92 30.2507 106.216 27.584 104.808 25.28C103.4 22.976 101.501 21.184 99.112 19.904C96.7653 18.5813 94.0773 17.92 91.048 17.92C88.0187 17.92 85.3093 18.5813 82.92 19.904C80.5307 21.184 78.632 22.976 77.224 25.28C75.8587 27.584 75.176 30.2507 75.176 33.28ZM82.28 33.28C82.28 31.4453 82.664 29.824 83.432 28.416C84.2 27.008 85.2453 25.92 86.568 25.152C87.8907 24.384 89.384 24 91.048 24C92.6693 24 94.1413 24.384 95.464 25.152C96.8293 25.92 97.896 27.008 98.664 28.416C99.432 29.824 99.816 31.4453 99.816 33.28C99.816 35.1147 99.432 36.736 98.664 38.144C97.896 39.5093 96.8293 40.5973 95.464 41.408C94.1413 42.176 92.6693 42.56 91.048 42.56C89.384 42.56 87.8907 42.176 86.568 41.408C85.2453 40.5973 84.2 39.5093 83.432 38.144C82.664 36.736 82.28 35.1147 82.28 33.28ZM120.583 36.48V18.56H113.479V37.248C113.479 40.7467 114.353 43.52 116.103 45.568C117.895 47.616 120.433 48.64 123.719 48.64C125.767 48.64 127.516 48.2133 128.967 47.36C130.46 46.464 131.676 45.1627 132.615 43.456V48H139.527V18.56H132.615V36.48C132.615 37.8027 132.337 38.976 131.783 40C131.228 40.9813 130.46 41.7493 129.479 42.304C128.497 42.816 127.345 43.072 126.023 43.072C124.188 43.072 122.823 42.496 121.927 41.344C121.031 40.192 120.583 38.5707 120.583 36.48ZM155.202 18.56H148.354V48H155.202V18.56ZM163.97 25.92L167.298 20.096C166.658 19.2853 165.868 18.7307 164.93 18.432C163.991 18.0907 162.988 17.92 161.922 17.92C160.428 17.92 158.978 18.4533 157.57 19.52C156.204 20.5867 155.074 22.0373 154.178 23.872C153.324 25.664 152.898 27.7333 152.898 30.08L155.202 31.424C155.202 30.016 155.351 28.8 155.65 27.776C155.991 26.7093 156.524 25.8773 157.25 25.28C157.975 24.6827 158.914 24.384 160.066 24.384C160.919 24.384 161.623 24.512 162.178 24.768C162.732 25.024 163.33 25.408 163.97 25.92ZM190.333 6.848C190.333 8 190.759 8.98133 191.613 9.792C192.466 10.6027 193.49 11.008 194.685 11.008C195.879 11.008 196.882 10.6027 197.693 9.792C198.546 8.98133 198.973 8 198.973 6.848C198.973 5.65333 198.546 4.672 197.693 3.904C196.882 3.09333 195.879 2.688 194.685 2.688C193.49 2.688 192.466 3.09333 191.613 3.904C190.759 4.672 190.333 5.65333 190.333 6.848ZM185.34 54.336L182.076 59.712C182.546 60.224 183.1 60.6933 183.74 61.12C184.338 61.5893 185.042 61.9307 185.852 62.144C186.663 62.4 187.602 62.528 188.669 62.528C190.759 62.528 192.509 62.1013 193.917 61.248C195.367 60.4373 196.455 59.2427 197.181 57.664C197.906 56.128 198.269 54.2933 198.269 52.16V18.56H191.485V50.816C191.485 52.0107 191.357 52.992 191.101 53.76C190.887 54.528 190.546 55.0827 190.077 55.424C189.65 55.808 189.095 56 188.413 56C187.73 56 187.133 55.8507 186.62 55.552C186.108 55.2533 185.682 54.848 185.34 54.336ZM205.551 33.28C205.551 36.2667 206.234 38.9333 207.599 41.28C209.007 43.584 210.906 45.3973 213.295 46.72C215.684 48 218.394 48.64 221.423 48.64C224.452 48.64 227.14 48 229.487 46.72C231.876 45.3973 233.775 43.584 235.183 41.28C236.591 38.9333 237.295 36.2667 237.295 33.28C237.295 30.2507 236.591 27.584 235.183 25.28C233.775 22.976 231.876 21.184 229.487 19.904C227.14 18.5813 224.452 17.92 221.423 17.92C218.394 17.92 215.684 18.5813 213.295 19.904C210.906 21.184 209.007 22.976 207.599 25.28C206.234 27.584 205.551 30.2507 205.551 33.28ZM212.655 33.28C212.655 31.4453 213.039 29.824 213.807 28.416C214.575 27.008 215.62 25.92 216.943 25.152C218.266 24.384 219.759 24 221.423 24C223.044 24 224.516 24.384 225.839 25.152C227.204 25.92 228.271 27.008 229.039 28.416C229.807 29.824 230.191 31.4453 230.191 33.28C230.191 35.1147 229.807 36.736 229.039 38.144C228.271 39.5093 227.204 40.5973 225.839 41.408C224.516 42.176 223.044 42.56 221.423 42.56C219.759 42.56 218.266 42.176 216.943 41.408C215.62 40.5973 214.575 39.5093 213.807 38.144C213.039 36.736 212.655 35.1147 212.655 33.28ZM250.958 36.48V18.56H243.854V37.248C243.854 40.7467 244.728 43.52 246.478 45.568C248.27 47.616 250.808 48.64 254.094 48.64C256.142 48.64 257.891 48.2133 259.342 47.36C260.835 46.464 262.051 45.1627 262.99 43.456V48H269.902V18.56H262.99V36.48C262.99 37.8027 262.712 38.976 262.158 40C261.603 40.9813 260.835 41.7493 259.854 42.304C258.872 42.816 257.72 43.072 256.398 43.072C254.563 43.072 253.198 42.496 252.302 41.344C251.406 40.192 250.958 38.5707 250.958 36.48ZM285.577 18.56H278.729V48H285.577V18.56ZM294.345 25.92L297.673 20.096C297.033 19.2853 296.243 18.7307 295.305 18.432C294.366 18.0907 293.363 17.92 292.297 17.92C290.803 17.92 289.353 18.4533 287.945 19.52C286.579 20.5867 285.449 22.0373 284.553 23.872C283.699 25.664 283.273 27.7333 283.273 30.08L285.577 31.424C285.577 30.016 285.726 28.8 286.025 27.776C286.366 26.7093 286.899 25.8773 287.625 25.28C288.35 24.6827 289.289 24.384 290.441 24.384C291.294 24.384 291.998 24.512 292.553 24.768C293.107 25.024 293.705 25.408 294.345 25.92ZM321.36 30.08V48H328.464V29.312C328.464 25.7707 327.589 22.9973 325.84 20.992C324.091 18.944 321.552 17.92 318.224 17.92C316.176 17.92 314.405 18.3467 312.912 19.2C311.461 20.0533 310.267 21.3547 309.328 23.104V18.56H302.416V48H309.328V30.08C309.328 28.7573 309.605 27.6053 310.16 26.624C310.715 25.6 311.483 24.832 312.464 24.32C313.445 23.7653 314.576 23.488 315.856 23.488C317.733 23.488 319.12 24.0427 320.016 25.152C320.912 26.2613 321.36 27.904 321.36 30.08ZM350.091 48.64C353.504 48.64 356.427 47.9787 358.859 46.656C361.291 45.3333 363.275 43.3493 364.811 40.704L358.859 38.272C357.92 39.8507 356.747 41.024 355.339 41.792C353.931 42.56 352.288 42.944 350.411 42.944C348.619 42.944 347.083 42.56 345.803 41.792C344.566 41.024 343.627 39.9147 342.987 38.464C342.347 36.9707 342.027 35.1573 342.027 33.024C342.07 30.8907 342.411 29.0987 343.051 27.648C343.691 26.1973 344.63 25.088 345.867 24.32C347.104 23.552 348.598 23.168 350.347 23.168C351.798 23.168 353.056 23.488 354.123 24.128C355.232 24.768 356.086 25.664 356.683 26.816C357.323 27.968 357.643 29.3333 357.643 30.912C357.643 31.2107 357.558 31.5947 357.387 32.064C357.259 32.4907 357.131 32.832 357.003 33.088L359.115 30.144H339.147V34.88H365.003C365.046 34.7093 365.067 34.432 365.067 34.048C365.11 33.664 365.131 33.3013 365.131 32.96C365.131 29.8027 364.534 27.1147 363.339 24.896C362.187 22.6347 360.523 20.9067 358.347 19.712C356.171 18.5173 353.526 17.92 350.411 17.92C347.296 17.92 344.587 18.56 342.283 19.84C339.979 21.0773 338.187 22.848 336.907 25.152C335.67 27.456 335.051 30.1653 335.051 33.28C335.051 36.352 335.67 39.04 336.907 41.344C338.144 43.648 339.894 45.44 342.155 46.72C344.459 48 347.104 48.64 350.091 48.64ZM396.839 18.56H389.415L380.199 41.664L383.463 41.856L374.055 18.56H366.119L377.959 44.544L370.279 62.08H377.639L396.839 18.56Z" fill="#5AC235"/>
<path d="M19.3191 37.5182C21.2395 36.3146 23.133 35.1268 24.878 34.0304L24.4194 39.948C23.2475 38.3604 21.344 37.4258 19.3191 37.5182Z" stroke="#5AC235" stroke-width="10"/>
<path d="M52.9123 38.2227V51.9925C52.9123 57.6096 50.5382 62.965 46.376 66.737L45.5265 67.507C42.4132 70.3284 38.3618 71.8911 34.1603 71.8911V71.8911C29.3255 71.8911 24.7216 69.8236 21.5096 66.2101L21.0563 65.7002C16.4153 60.479 15.1221 53.0841 17.7156 46.5977L19.7017 41.6305" stroke="#5AC235" stroke-width="8"/>
<rect x="48.9126" y="3.70654" width="8" height="40" rx="4" fill="#5AC235"/>
<rect x="32.9126" y="8" width="8" height="40" rx="4" transform="rotate(-90 32.9126 8)" fill="#5AC235"/>
</svg>
